/vscmnt/brussel_pixiu_data/_data_brussel/112/vsc11236/PredSimResults/SUBJ11mtu3D/weighted-expIG/worker_04.mot
version=1
nRows=10
nColumns=50
inDegrees=yes
endheader
                time	         pelvis_tilt	         pelvis_list	     pelvis_rotation	           pelvis_tx	           pelvis_ty	           pelvis_tz	       hip_flexion_r	     hip_adduction_r	      hip_rotation_r	        knee_angle_r	       ankle_angle_r	         mtp_angle_r	       hip_flexion_l	     hip_adduction_l	      hip_rotation_l	        knee_angle_l	       ankle_angle_l	         mtp_angle_l	    lumbar_extension	      lumbar_bending	     lumbar_rotation	 ercspn_r/activation	 intobl_r/activation	 extobl_r/activation	    abd_r/activation	    add_r/activation	hamstrings_r/activation	bifemsh_r/activation	glut_max_r/activation	iliopsoas_r/activation	rect_fem_r/activation	  vasti_r/activation	gastroc_r/activation	 soleus_r/activation	tib_ant_r/activation	 ercspn_l/activation	 intobl_l/activation	 extobl_l/activation	    abd_l/activation	    add_l/activation	hamstrings_l/activation	bifemsh_l/activation	glut_max_l/activation	iliopsoas_l/activation	rect_fem_l/activation	  vasti_l/activation	gastroc_l/activation	 soleus_l/activation	tib_ant_l/activation	
          2.13204437	         -6.07555732	          5.12376824	         -8.30317828	          2.15336481	          0.94181517	          0.01792303	        -11.58580357	         -5.52681261	          4.75423958	         -7.08907696	         12.75743870	         26.15400583	         31.04672515	          1.49701733	         -4.51185356	         -4.14369300	          5.46409120	          0.20835581	         -3.80829219	         -3.11811401	          2.05781463	          0.02710607	          0.00999999	          0.01000000	          0.05478466	          0.02704000	          0.02859060	          0.13611064	          0.05478480	          0.44295055	          0.01000002	          0.01000001	          0.36133044	          0.26411294	          0.01050619	          0.09049682	          0.15084063	          0.02824175	          0.01236893	          0.10224855	          0.04548763	          0.19342693	          0.01209209	          0.09164100	          0.01428743	          0.01000000	          0.01554179	          0.00999999	          0.28269542	
          2.14625800	         -6.21284181	          4.94498403	         -8.34914007	          2.17103551	          0.93952314	          0.01714070	        -11.88929031	         -5.42319719	          4.37257288	         -8.28121739	         12.30951625	         28.07658415	         31.15312668	          1.50768158	         -4.55172880	         -5.68818127	          5.01485195	          0.21217846	         -3.50565116	         -3.37426013	          2.24161597	          0.06732613	          0.01000000	          0.01000001	          0.04429213	          0.05416493	          0.02311486	          0.11004231	          0.04429225	          0.45314352	          0.01000005	          0.01000001	          0.33269621	          0.25180336	          0.00999999	          0.07316459	          0.12195127	          0.02283280	          0.01000000	          0.14978820	          0.04558886	          0.15638122	          0.05943088	          0.07408962	          0.01155106	          0.01000000	          0.02209857	          0.01529907	          0.29463832	
          2.16047162	         -6.32609529	          4.75602297	         -8.34184426	          2.18914067	          0.93754322	          0.01627430	        -12.03069575	         -5.29721348	          3.96732711	         -9.84737477	         11.73832725	         30.10032737	         31.04457511	          1.50376884	         -4.56062890	         -7.15672814	          4.55686016	          0.18618666	         -3.18627253	         -3.63498371	          2.40564050	          0.07872504	          0.00999999	          0.01000000	          0.03580916	          0.04744942	          0.02329927	          0.08896666	          0.03580926	          0.44354228	          0.01000004	          0.01453616	          0.30169883	          0.23479077	          0.00999999	          0.07105224	          0.09859479	          0.01845979	          0.05898786	          0.14269129	          0.05422149	          0.12643063	          0.08007145	          0.05989975	          0.01000000	          0.00999999	          0.01786618	          0.01236895	          0.33694370	
          2.17468525	         -6.41711470	          4.55969312	         -8.28364276	          2.20737650	          0.93614753	          0.01530330	        -11.91022914	         -5.15019616	          3.54884849	        -11.90440277	         10.97758846	         32.23410237	         30.75628528	          1.50335386	         -4.59557925	         -8.33311414	          3.93474194	          0.15635560	         -2.87901346	         -3.89825610	          2.54305004	          0.10514654	          0.00999999	          0.01000000	          0.02895088	          0.05429803	          0.02386168	          0.07192749	          0.02895095	          0.42536338	          0.01000007	          0.01328609	          0.24391653	          0.19466110	          0.00999999	          0.08120827	          0.07971160	          0.01492431	          0.10930280	          0.16375247	          0.05226011	          0.10221625	          0.10596458	          0.04842756	          0.01000000	          0.01000000	          0.01444440	          0.01000001	          0.36774013	
          2.18889888	         -6.48437711	          4.36253337	         -8.17875972	          2.22548702	          0.93549422	          0.01424522	        -11.45258001	         -4.98675663	          3.11118491	        -14.54815580	         10.01174453	         34.38764688	         30.38748632	          1.51196305	         -4.67200381	         -9.42229573	          3.41828347	          0.12064313	         -2.60443731	         -4.17262330	          2.64813575	          0.12968666	          0.00999999	          0.01000000	          0.02340611	          0.07201345	          0.02621011	          0.05815172	          0.02340618	          0.38694035	          0.01000001	          0.01074150	          0.19720087	          0.15737899	          0.00999999	          0.07726880	          0.06444499	          0.01206596	          0.13352537	          0.17413032	          0.04898173	          0.08263947	          0.11564103	          0.03915256	          0.01000000	          0.03799001	          0.01167797	          0.01000002	          0.39481938	
          2.20311251	         -6.52662869	          4.16551879	         -8.03004741	          2.24331810	          0.93559811	          0.01312531	        -10.63004507	         -4.81048827	          2.64016827	        -17.79718475	          8.81813131	         36.42134508	         29.95497788	          1.52761722	         -4.77726201	        -10.44581410	          3.05726212	          0.09348742	         -2.37265871	         -4.45914271	          2.71759148	          0.13330933	          0.01000000	          0.01000000	          0.01892330	          0.08637490	          0.03548241	          0.04701433	          0.01892335	          0.33263625	          0.01000000	          0.00999999	          0.15943233	          0.12723727	          0.00999999	          0.07629509	          0.05210228	          0.00999999	          0.13973701	          0.14078070	          0.05348191	          0.06681211	          0.10799961	          0.03165394	          0.01000000	          0.09825525	          0.01000001	          0.01000001	          0.40504431	
          2.21732614	         -6.54535022	          3.95858540	         -7.84205253	          2.26076170	          0.93644078	          0.01198466	         -9.46109717	         -4.61960481	          2.12762049	        -21.58041310	          7.40237884	         38.04500827	         29.42709261	          1.54432968	         -4.86652285	        -11.32896671	          2.83757360	          0.06832755	         -2.19119069	         -4.74878177	          2.75097316	          0.14596453	          0.01000000	          0.01000001	          0.01529905	          0.10184252	          0.02868673	          0.05757125	          0.01529909	          0.27097760	          0.01000000	          0.00999999	          0.12889735	          0.10286838	          0.01000000	          0.06345302	          0.04212349	          0.01000000	          0.13831689	          0.11381794	          0.05029544	          0.05401605	          0.10593587	          0.02559147	          0.01000000	          0.15538212	          0.01000003	          0.01000002	          0.40491198	
          2.23153977	         -6.54264600	          3.73047644	         -7.61710954	          2.27776027	          0.93802687	          0.01084842	         -7.98836182	         -4.41638656	          1.56638313	        -25.79483641	          5.86220728	         38.77752834	         28.75974985	          1.55898950	         -4.89624973	        -11.98975725	          2.76374252	          0.05050150	         -2.06338795	         -5.02755124	          2.74879632	          0.15368264	          0.01000000	          0.01000003	          0.01236893	          0.11076252	          0.02319256	          0.06859366	          0.01236896	          0.21907912	          0.00999999	          0.00999999	          0.10421052	          0.08316671	          0.00999999	          0.05364837	          0.03405587	          0.01000000	          0.13034530	          0.09201917	          0.04762533	          0.04367073	          0.10040448	          0.02069012	          0.01000000	          0.18872647	          0.01000003	          0.01000003	          0.39406395	
          2.24575340	         -6.52046792	          3.46559240	         -7.35463510	          2.29432927	          0.94030826	          0.00973522	         -6.26868066	         -4.19793419	          0.97306994	        -30.31362373	          4.19873565	         38.43524378	         27.92417595	          1.55850002	         -4.84971430	        -12.37601378	          2.80518072	          0.04066469	         -1.98554762	         -5.27550767	          2.71095581	          0.15642056	          0.00999999	          0.01815082	          0.00999999	          0.12118226	          0.01875065	          0.07785997	          0.01000002	          0.17712039	          0.00999999	          0.00999999	          0.08425179	          0.06723836	          0.02425920	          0.04405308	          0.02753338	          0.01000000	          0.11596513	          0.07439537	          0.04547371	          0.03530677	          0.09423354	          0.01672748	          0.01000000	          0.20235286	          0.01000001	          0.01000001	          0.37788896	
          2.25996703	         -6.48036878	          3.14784863	         -7.05259858	          2.31048292	          0.94314966	          0.00865556	         -4.36438494	         -3.95189790	          0.37468541	        -34.99874189	          2.47165742	         36.87802827	         26.93008795	          1.52296972	         -4.72572327	        -12.50121303	          2.93355301	          0.03999976	         -1.95654518	         -5.47153715	          2.63872376	          0.16374691	          0.00999999	          0.03802787	          0.00999999	          0.13197040	          0.01515947	          0.08183624	          0.00999999	          0.14319774	          0.01000000	          0.00999999	          0.06811562	          0.05436065	          0.06508177	          0.03561591	          0.02226010	          0.00999999	          0.10105719	          0.06014693	          0.04317169	          0.02854471	          0.08941697	          0.01352378	          0.01000000	          0.19813405	          0.01000000	          0.01000000	          0.35767736	
